<?xml version="1.0" standalone="no"?>
<!DOCTYPE svg PUBLIC "-//W3C//DTD SVG 20010904//EN"
 "http://www.w3.org/TR/2001/REC-SVG-20010904/DTD/svg10.dtd">
<svg version="1.0" xmlns="http://www.w3.org/2000/svg"
 width="400.000000pt" height="400.000000pt" viewBox="0 0 400.000000 400.000000"
 preserveAspectRatio="xMidYMid meet">
<metadata>
Created by potrace 1.14, written by Peter Selinger 2001-2017
</metadata>
<g transform="translate(0.000000,400.000000) scale(0.100000,-0.100000)"
fill="#000000" stroke="none">
<path d="M435 3988 c-75 -14 -183 -70 -249 -130 -100 -89 -161 -204 -181 -341
l-7 -47 221 7 221 6 0 -33 0 -33 -220 6 -220 7 0 -60 0 -60 64 0 c36 0 68 5
71 10 4 6 67 10 156 10 l149 0 0 -32 0 -31 -220 6 -220 6 0 -59 0 -60 64 0
c36 0 68 5 71 10 4 6 67 10 156 10 l149 0 0 -35 0 -35 -149 0 c-89 0 -152 4
-156 10 -3 6 -35 10 -71 10 l-64 0 0 -60 0 -60 220 7 220 6 0 -31 0 -32 -149
0 c-89 0 -152 4 -156 10 -3 6 -35 10 -71 10 l-64 0 0 -60 0 -60 220 7 220 6 0
-33 0 -33 -220 6 -220 7 0 -60 0 -59 220 6 220 6 0 -28 0 -28 -220 6 -220 7 0
-60 0 -60 220 7 220 6 0 -33 0 -33 -220 6 -220 7 0 -60 0 -60 64 0 c36 0 68 5
71 10 4 6 67 10 156 10 l149 0 0 -32 0 -31 -220 6 -220 7 0 -60 0 -60 64 0
c36 0 68 5 71 10 4 6 67 10 156 10 l149 0 0 -36 0 -35 -150 2 c-82 2 -150 7
-150 11 0 5 -31 8 -70 8 l-70 0 0 -60 0 -59 220 6 220 6 0 -31 0 -32 -149 0
c-89 0 -152 4 -156 10 -3 6 -35 10 -71 10 l-64 0 0 -60 0 -60 220 7 220 6 0
-33 0 -33 -220 6 -220 7 0 -60 0 -60 64 0 c36 0 68 5 71 10 4 6 67 10 156 10
l149 0 0 -32 0 -31 -220 6 -220 7 0 -61 0 -60 188 8 c275 11 246 13 250 -25
l3 -33 -150 2 c-83 0 -153 5 -157 10 -3 5 -34 9 -70 9 l-64 0 0 -60 0 -60 220
7 220 6 0 -31 0 -32 -148 0 c-81 0 -152 4 -157 8 -6 4 -38 6 -73 4 l-62 -4 0
-54 0 -54 221 7 221 6 -4 -33 -3 -33 -95 2 c-52 0 -150 4 -217 7 l-123 7 0
-63 0 -62 127 6 c71 3 169 7 218 9 l90 2 0 -29 0 -29 -95 2 c-52 0 -150 4
-218 7 l-122 7 0 -61 0 -62 220 7 220 6 0 -32 0 -32 -150 2 c-82 0 -152 5
-156 10 -3 5 -34 9 -70 9 l-64 0 0 -59 0 -59 66 -4 c36 -1 68 0 71 5 2 4 71 7
154 7 l149 0 0 -32 0 -31 -220 6 -220 7 0 -60 0 -60 64 0 c36 0 68 5 71 10 4
6 67 10 156 10 l149 0 0 -32 0 -31 -220 6 -220 6 0 -59 0 -60 70 0 c40 0 70 4
70 10 0 6 57 10 150 10 l150 0 0 -35 0 -35 -149 0 c-89 0 -152 4 -156 10 -3 6
-36 10 -72 10 l-65 0 7 -47 c20 -135 81 -251 176 -338 71 -65 139 -101 235
-125 126 -32 115 -54 107 200 l-6 220 33 0 33 0 -6 -220 -7 -220 56 0 56 0 -6
128 c-3 70 -7 168 -8 217 l-3 90 30 0 30 0 3 -144 c2 -89 -1 -148 -8 -155 -5
-5 -10 -38 -10 -73 l0 -63 60 0 60 0 -7 220 -6 220 33 0 33 0 -6 -220 -7 -220
61 0 61 0 -7 72 c-3 40 -7 138 -8 218 l-2 145 29 3 29 4 -6 -221 -7 -221 60 0
60 0 -7 221 -6 221 29 -4 29 -3 -2 -145 c-2 -80 -6 -178 -9 -217 l-6 -73 61 0
61 0 -7 220 -6 220 33 0 33 0 -6 -220 -7 -220 60 0 60 0 0 64 c0 36 -4 68 -10
71 -6 4 -10 67 -10 156 l0 149 32 0 31 0 -6 -220 -7 -220 60 0 60 0 0 70 c0
40 -4 70 -10 70 -6 0 -10 57 -10 150 l0 150 35 0 35 0 0 -149 c0 -89 -4 -152
-10 -156 -5 -3 -10 -35 -10 -71 l0 -64 60 0 60 0 -7 220 -6 220 31 0 32 0 0
-149 c0 -89 -4 -152 -10 -156 -5 -3 -10 -35 -10 -71 l0 -64 60 0 60 0 -7 220
-6 220 33 0 33 0 -6 -220 -7 -220 60 0 60 0 -7 220 -6 220 28 0 28 0 -6 -220
-7 -220 60 0 60 0 -7 220 -6 220 33 0 33 0 -6 -220 -7 -220 60 0 60 0 0 64 c0
36 -4 68 -10 71 -6 4 -10 67 -10 156 l0 149 32 0 31 0 -6 -220 -7 -220 60 0
60 0 0 64 c0 36 -4 68 -10 71 -6 4 -10 67 -10 156 l0 149 35 0 35 0 0 -150 c0
-93 -4 -150 -10 -150 -6 0 -10 -30 -10 -70 l0 -70 60 0 60 0 -7 220 -6 220 31
0 32 0 0 -149 c0 -89 -4 -152 -10 -156 -5 -3 -10 -35 -10 -71 l0 -64 60 0 60
0 -7 220 -6 220 33 0 33 0 -6 -220 -7 -220 60 0 59 0 -6 220 -6 220 28 0 28 0
-6 -220 -7 -220 60 0 60 0 -7 220 -6 220 33 0 33 0 -6 -220 -7 -220 60 0 60 0
0 64 c0 36 -4 68 -10 71 -6 4 -10 67 -10 156 l0 149 32 0 31 0 -6 -220 -7
-220 60 0 60 0 0 64 c0 36 -4 68 -10 71 -6 4 -10 67 -10 156 l0 150 33 -3 32
-3 3 -139 c2 -86 -1 -143 -8 -150 -5 -5 -10 -41 -10 -79 l0 -69 47 7 c237 35
416 200 468 429 9 38 14 75 11 82 -6 17 -136 20 -136 4 0 -6 -57 -10 -150 -10
l-150 0 0 35 0 35 144 0 c86 0 147 -4 151 -10 3 -6 37 -10 76 -10 l69 0 0 60
0 60 -220 -7 -220 -6 0 31 0 32 144 0 c86 0 147 -4 151 -10 3 -6 37 -10 76
-10 l69 0 0 60 0 60 -220 -7 -220 -6 0 31 0 32 149 0 c83 0 152 -3 154 -7 3
-5 35 -6 71 -5 l66 4 0 59 0 59 -69 0 c-39 0 -73 -4 -76 -10 -4 -6 -65 -10
-151 -10 l-144 0 0 32 0 31 220 -6 220 -7 0 62 0 61 -122 -7 c-68 -3 -166 -7
-218 -7 l-95 -2 -3 32 -3 32 58 -5 c32 -3 131 -8 221 -12 l162 -6 0 61 0 61
-220 -7 -220 -6 0 31 0 32 149 0 c83 0 152 -3 154 -7 3 -5 35 -6 71 -5 l66 4
0 56 0 57 -65 -1 c-36 -1 -69 -4 -72 -8 -4 -3 -73 -6 -155 -6 l-148 0 0 32 0
31 220 -6 220 -7 0 61 0 61 -72 -6 c-40 -4 -139 -9 -220 -12 l-148 -6 0 37 0
36 73 -5 c39 -3 138 -8 220 -12 l147 -6 0 61 0 61 -220 -7 -220 -6 0 32 0 32
148 -5 c81 -3 180 -8 220 -11 l72 -7 0 61 0 61 -220 -7 -220 -6 0 33 0 33 220
-6 220 -7 0 60 0 60 -69 0 c-39 0 -73 -4 -76 -10 -4 -6 -65 -10 -151 -10
l-144 0 0 32 0 31 220 -6 220 -7 0 60 0 60 -68 0 c-38 0 -72 -3 -75 -7 -4 -4
-72 -9 -152 -11 l-145 -4 0 36 0 36 150 0 c93 0 150 -4 150 -10 0 -6 30 -10
70 -10 l70 0 0 60 0 60 -220 -7 -220 -6 0 31 0 32 149 0 c89 0 152 -4 156 -10
3 -5 35 -10 71 -10 l64 0 0 60 0 60 -220 -7 -220 -6 0 33 0 33 220 -6 220 -7
0 60 0 60 -220 -7 -220 -6 0 28 0 28 220 -6 220 -7 0 60 0 60 -220 -7 -220 -6
0 33 0 33 220 -6 220 -7 0 60 0 60 -70 0 c-40 0 -70 -4 -70 -10 0 -6 -57 -10
-150 -10 l-150 0 0 32 0 31 220 -6 220 -7 0 60 0 60 -70 0 c-40 0 -70 -4 -70
-10 0 -6 -57 -10 -150 -10 l-150 0 0 35 0 35 144 0 c86 0 147 -4 151 -10 3 -5
37 -10 76 -10 l69 0 0 60 0 60 -220 -7 -220 -6 0 31 0 32 150 0 c93 0 150 -4
150 -10 0 -6 30 -10 70 -10 l70 0 0 60 0 60 -220 -7 -220 -6 0 33 0 33 221 -6
221 -7 -7 47 c-28 190 -142 347 -310 428 -70 33 -185 61 -211 51 -17 -6 -20
-121 -4 -131 6 -4 10 -67 10 -156 l0 -149 -32 0 -31 0 6 220 6 220 -54 0 -54
0 6 -221 6 -221 -29 4 -29 3 -3 153 c-2 99 1 152 8 152 6 0 10 27 10 65 l0 65
-60 0 -60 0 7 -220 6 -220 -33 0 -33 0 6 220 7 220 -60 0 -59 0 6 -220 6 -220
-28 0 -28 0 6 220 6 220 -59 0 -60 0 7 -220 6 -220 -33 0 -33 0 6 220 7 220
-60 0 -60 0 0 -64 c0 -36 4 -68 10 -71 6 -4 10 -67 10 -156 l0 -149 -32 0 -31
0 6 220 6 220 -59 0 -60 0 0 -64 c0 -36 4 -68 10 -71 6 -4 10 -67 10 -156 l0
-149 -35 0 -35 0 0 149 c0 89 4 152 10 156 6 3 10 35 10 71 l0 64 -60 0 -59 0
6 -220 6 -220 -31 0 -32 0 0 149 c0 89 4 152 10 156 6 3 10 35 10 71 l0 64
-60 0 -60 0 7 -220 6 -220 -33 0 -33 0 6 220 7 220 -60 0 -60 0 7 -177 c11
-278 13 -257 -21 -261 l-29 -4 6 221 6 221 -61 0 -61 0 7 -122 c3 -68 7 -166
7 -218 l2 -95 -33 -3 -33 -4 6 221 7 221 -60 0 -60 0 0 -64 c0 -36 5 -68 10
-71 6 -4 10 -67 10 -156 l0 -149 -32 0 -31 0 6 220 6 220 -59 0 -60 0 0 -64
c0 -36 5 -68 10 -71 6 -4 10 -67 10 -156 l0 -150 -32 3 -33 3 -3 144 c-2 89 1
148 8 155 5 5 10 38 10 73 l0 63 -61 0 -62 0 7 -112 c3 -62 7 -160 7 -218 l2
-105 -32 -3 -31 -3 0 150 c0 89 4 152 10 156 6 3 10 35 10 71 l0 64 -60 0 -60
0 7 -220 6 -220 -31 0 -32 0 0 148 c0 81 4 152 8 158 4 5 6 37 4 72 l-4 62
-59 0 -59 0 0 -63 c0 -35 5 -68 10 -73 7 -7 10 -66 8 -155 l-3 -144 -29 -3
-29 -4 6 221 6 221 -61 0 -61 0 7 -112 c3 -62 7 -160 7 -218 l2 -105 -29 0
c-34 0 -32 -21 -21 258 l7 177 -61 0 -62 0 7 -112 c3 -62 7 -160 7 -218 l2
-105 -33 -3 -33 -4 6 221 7 221 -60 0 -60 0 0 -64 c0 -36 5 -68 10 -71 6 -4
10 -67 10 -156 l0 -149 -32 0 -31 0 6 220 6 220 -59 0 -60 0 0 -64 c0 -36 3
-67 8 -70 4 -2 7 -71 7 -153 l0 -148 -30 0 -30 0 -3 144 c-2 89 1 148 8 155 5
5 10 38 10 73 0 71 3 70 -95 51z m3025 -1988 l0 -1460 -1462 2 -1463 3 -3
1458 -2 1457 1465 0 1465 0 0 -1460z"/>
<path d="M567 3433 c-4 -3 -7 -651 -7 -1440 l0 -1433 1440 0 1440 0 0 1440 0
1440 -1433 0 c-789 0 -1437 -3 -1440 -7z m828 -1006 c53 -17 106 -62 131 -109
21 -40 28 -136 14 -187 -19 -71 -54 -114 -125 -154 -35 -19 -59 -22 -210 -27
l-170 -5 -3 -162 -2 -163 -60 0 -60 0 0 409 c0 318 3 411 13 415 6 3 104 4
217 2 153 -2 218 -7 255 -19z m379 17 c14 -5 16 -30 16 -170 l0 -164 205 0
205 0 0 158 c0 110 4 162 12 170 16 16 80 15 101 0 16 -12 17 -46 15 -413 l-3
-400 -62 -3 -63 -3 0 186 0 185 -205 0 -205 0 0 -185 0 -185 -59 0 c-38 0 -61
4 -64 13 -5 14 3 786 8 805 5 12 71 17 99 6z m1160 -9 c91 -16 136 -46 176
-116 34 -61 35 -175 1 -234 -63 -111 -105 -128 -321 -135 l-165 -5 -3 -162 -2
-163 -60 0 -60 0 0 408 c0 225 3 412 7 415 12 13 346 7 427 -8z"/>
<path d="M1035 2318 c-3 -12 -4 -75 -3 -138 l3 -115 115 -3 c159 -4 196 2 237
43 29 29 33 40 33 84 0 29 -7 65 -15 81 -27 53 -64 64 -222 68 -142 4 -142 4
-148 -20z"/>
<path d="M2628 2334 c-5 -4 -8 -68 -8 -142 l0 -134 153 4 c128 3 156 6 180 22
81 54 76 186 -9 234 -22 12 -64 17 -169 20 -77 2 -143 0 -147 -4z"/>
</g>
</svg>
